<?xml version="1.0" encoding="UTF-8"?>
<svg version="1.0" width="64" height="64" viewBox="0 0 238 238" preserveAspectRatio="xMidYMid" xmlns="http://www.w3.org/2000/svg">
  <g transform="matrix(0.1,0,0,-0.1,-132.27966,390)" fill="#000000">
    <path d="m 2200,3891 c 0,-5 -121,-292 -269,-638 -147,-345 -326,-763 -396,-928 -133,-313 -135,-317 -184,-429 -17,-38 -30,-71 -28,-73 9,-9 476,-11 575,-3 90,8 125,16 169,37 111,55 185,143 297,356 93,179 171,268 282,322 77,38 137,45 375,45 121,0 219,2 219,6 0,3 -9,24 -19,47 -10,23 -37,85 -59,137 -22,52 -78,185 -125,295 -46,110 -108,256 -137,325 -29,69 -61,143 -71,166 -10,22 -28,65 -39,95 -12,29 -32,76 -44,104 -13,27 -31,71 -41,98 l -18,47 h -243 c -144,0 -244,-4 -244,-9 z m 289,-442 c 21,-52 57,-137 79,-189 113,-268 162,-392 157,-399 -2,-5 -35,-11 -73,-14 -109,-11 -201,-48 -299,-122 -109,-81 -160,-155 -307,-442 -51,-99 -93,-140 -151,-150 l -34,-5 20,53 c 12,30 31,81 44,114 12,33 38,98 58,145 20,47 104,252 188,455 146,357 162,397 193,468 13,29 42,101 67,166 5,13 12,22 14,19 3,-3 23,-47 44,-99 z"/>
    <path d="m 2799.6183,2373.6739 c -25.6554,-24.1005 -34.2071,-51.3107 -24.1005,-81.6307 10.8841,-32.6522 38.0943,-49.7558 77.7435,-49.7558 25.6553,0 37.3168,4.6646 55.9753,23.3231 20.9907,21.7681 23.323,27.9876 19.4358,56.7527 -6.2194,43.5363 -33.4297,67.6368 -78.5209,67.6368 -22.5456,0 -38.0943,-4.6646 -50.5332,-16.3261 z"/>
    <path d="m 3148.6864,2164.5439 c -81.6306,-17.1035 -139.9382,-80.8532 -139.9382,-153.1546 0,-78.5209 50.5333,-121.2798 167.1485,-141.4931 96.4019,-17.1035 112.728,-23.323 121.2798,-45.0912 17.881,-46.6461 -9.3292,-71.524 -78.5209,-72.3014 -57.5302,0 -78.5209,10.1066 -97.9568,48.2009 l -12.439,24.1005 -55.1978,-5.442 c -30.32,-3.1098 -56.7527,-6.2195 -58.3076,-8.5518 -6.2195,-5.4421 14.7712,-52.8656 35.762,-80.8532 10.8841,-14.7713 38.0943,-34.9846 62.9722,-46.6461 38.0943,-17.881 52.8655,-20.2133 117.3926,-19.4359 136.0511,1.5549 202.133,52.0882 202.133,157.0418 0,88.6276 -31.8748,114.2829 -186.5843,146.1577 -83.1855,17.1036 -101.0665,28.7651 -101.0665,61.4174 0,36.5394 22.5456,50.5332 80.0758,50.5332 55.1978,0 73.0788,-8.5517 87.8501,-42.7589 10.1066,-24.1004 12.4389,-25.6553 39.6492,-22.5456 90.9598,11.6615 88.6275,10.1067 65.3045,55.9753 -19.4359,37.3169 -51.3107,67.6368 -88.6276,83.1855 -37.3168,15.5487 -115.0603,20.9908 -160.929,11.6615 z"/>
    <path d="m 2791.0665,1921.9843 c 0,-139.1608 -3.1097,-247.2242 -7.7743,-264.3277 -9.3293,-33.4297 -26.4328,-45.0913 -65.3046,-45.0913 H 2690 v -46.646 -46.6461 h 54.4204 c 64.5271,0 97.9568,12.4389 125.9444,45.0912 32.6523,38.8717 37.3169,83.1855 37.3169,347.5133 v 244.8919 h -58.3076 -58.3076 z"/>
  </g>
</svg>