<svg fill="#ffffff" width="28px" height="28px" viewBox="0 0 0.96 0.96" xmlns="http://www.w3.org/2000/svg"><path d="m0.226 0.68 -0.028 0.028a0.04 0.04 0 0 0 0 0.056 0.04 0.04 0 0 0 0.056 0l0.028 -0.028A0.04 0.04 0 0 0 0.226 0.68M0.2 0.48a0.04 0.04 0 0 0 -0.04 -0.04H0.12a0.04 0.04 0 0 0 0 0.08h0.04a0.04 0.04 0 0 0 0.04 -0.04m0.28 -0.28a0.04 0.04 0 0 0 0.04 -0.04V0.12a0.04 0.04 0 0 0 -0.08 0v0.04a0.04 0.04 0 0 0 0.04 0.04M0.226 0.282a0.04 0.04 0 0 0 0.028 0.012 0.04 0.04 0 0 0 0.028 -0.012 0.04 0.04 0 0 0 0 -0.056l-0.028 -0.028a0.04 0.04 0 0 0 -0.056 0.056Zm0.48 0.012a0.04 0.04 0 0 0 0.028 -0.012l0.028 -0.028a0.04 0.04 0 1 0 -0.056 -0.056l-0.026 0.028a0.04 0.04 0 0 0 0 0.056 0.04 0.04 0 0 0 0.026 0.012ZM0.84 0.44h-0.04a0.04 0.04 0 0 0 0 0.08h0.04a0.04 0.04 0 0 0 0 -0.08m-0.36 0.32a0.04 0.04 0 0 0 -0.04 0.04v0.04a0.04 0.04 0 0 0 0.08 0v-0.04a0.04 0.04 0 0 0 -0.04 -0.04m0.254 -0.08A0.04 0.04 0 0 0 0.68 0.734l0.028 0.028a0.04 0.04 0 0 0 0.056 0 0.04 0.04 0 0 0 0 -0.056ZM0.48 0.26a0.22 0.22 0 1 0 0.22 0.22A0.22 0.22 0 0 0 0.48 0.26m0 0.36a0.14 0.14 0 1 1 0.14 -0.14 0.14 0.14 0 0 1 -0.14 0.14"/></svg>